<?xml version="1.0" standalone="no"?><!DOCTYPE svg PUBLIC "-//W3C//DTD SVG 1.1//EN" "http://www.w3.org/Graphics/SVG/1.1/DTD/svg11.dtd"><svg t="1513846068838" class="icon" style="" viewBox="0 0 1025 1024" version="1.1" xmlns="http://www.w3.org/2000/svg" p-id="1016" xmlns:xlink="http://www.w3.org/1999/xlink" width="32.03125" height="32"><defs><style type="text/css"></style></defs><path d="M1012.469996 956.764251 763.783636 708.077891c62.397669-75.058065 101.644898-170.191902 101.644898-275.454056C865.247671 193.704067 671.543604 0 432.623835 0c-238.919769 0-432.623835 193.704067-432.623835 432.623835 0 238.919769 193.704067 432.623835 432.623835 432.623835 105.262154 0 200.395991-39.066366 275.454056-101.644898l248.867223 248.867223c15.373339 15.373339 40.332406 15.373339 55.705745 0C1027.843335 997.096657 1027.843335 972.13759 1012.469996 956.764251L1012.469996 956.764251 1012.469996 956.764251zM432.623835 786.57235c-195.512695 0-353.948514-158.435819-353.948514-353.948514 0-195.512695 158.435819-353.948514 353.948514-353.948514C628.13653 78.675321 786.57235 237.111141 786.57235 432.623835 786.57235 604.081777 648.031439 786.57235 432.623835 786.57235L432.623835 786.57235 432.623835 786.57235z" p-id="1017" fill="#d81e06"></path><path d="M577.133219 386.684682l-103.0918 0 0-103.0918c0-18.990595-15.373339-34.363933-34.363933-34.363933-18.990595 0-34.363933 15.373339-34.363933 34.363933l0 103.0918-103.0918 0c-18.990595 0-34.363933 15.373339-34.363933 34.363933 0 18.990595 15.373339 34.363933 34.363933 34.363933l103.0918 0 0 103.0918c0 18.990595 15.373339 34.363933 34.363933 34.363933 18.990595 0 34.363933-15.373339 34.363933-34.363933l0-103.0918 103.0918 0c18.990595 0 34.363933-15.373339 34.363933-34.363933C611.497152 402.058021 596.123813 386.684682 577.133219 386.684682L577.133219 386.684682z" p-id="1018" fill="#d81e06"></path></svg>