<?xml version="1.0" standalone="no"?><!DOCTYPE svg PUBLIC "-//W3C//DTD SVG 1.1//EN" "http://www.w3.org/Graphics/SVG/1.1/DTD/svg11.dtd"><svg class="icon" width="32px" height="32.00px" viewBox="0 0 1024 1024" version="1.1" xmlns="http://www.w3.org/2000/svg"><path fill="#d81e06" d="M813.027008 959.458031 210.986295 959.458031c-80.748069 0-146.441257-65.698305-146.441257-146.453537L64.545038 210.956619c0-80.733743 65.693188-146.414651 146.441257-146.414651l602.040712 0c80.739882 0 146.427954 65.680908 146.427954 146.414651l0 602.046852C959.453938 893.759727 893.76689 959.458031 813.027008 959.458031zM210.986295 116.584252c-52.051493 0-94.398973 42.335201-94.398973 94.372368l0 602.046852c0 52.058656 42.34748 94.411253 94.398973 94.411253l602.040712 0c52.04433 0 94.384647-42.352597 94.384647-94.411253L907.411655 210.956619c0-52.037167-42.340317-94.372368-94.384647-94.372368L210.986295 116.584252zM736.444818 377.325741 646.671189 287.563368 512.002047 422.230464 377.333928 287.563368 287.555182 377.325741 422.231487 512 287.555182 646.674259 377.333928 736.436632 512.002047 601.768513 646.671189 736.436632 736.444818 646.674259 601.77056 512Z" /></svg>