<?xml version="1.0" standalone="no"?><!DOCTYPE svg PUBLIC "-//W3C//DTD SVG 1.1//EN" "http://www.w3.org/Graphics/SVG/1.1/DTD/svg11.dtd"><svg class="icon" width="32px" height="32.00px" viewBox="0 0 1024 1024" version="1.1" xmlns="http://www.w3.org/2000/svg"><path fill="#d81e06" d="M614.4 423.253333c102.4 102.4 102.4 269.653333 0 372.053334l-153.6 153.6C406.186667 996.693333 341.333333 1024 273.066667 1024s-133.12-23.893333-184.32-75.093333l-10.24-10.24C27.306667 887.466667 0 819.2 0 750.933333c0-71.68 27.306667-136.533333 78.506667-184.32l150.186666-150.186666L273.066667 464.213333 126.293333 614.4C88.746667 648.533333 68.266667 699.733333 68.266667 750.933333s20.48 98.986667 58.026666 136.533334l10.24 10.24c75.093333 75.093333 197.973333 75.093333 273.066667 0l153.6-153.6c75.093333-75.093333 75.093333-197.973333 0-276.48l-10.24-10.24c-10.24-10.24-20.48-17.066667-30.72-23.893334l37.546667-58.026666c13.653333 10.24 27.306667 20.48 40.96 34.133333l13.653333 13.653333z m334.506667-334.506666l-10.24-10.24C887.466667 27.306667 819.2 0 750.933333 0c-71.68 0-136.533333 27.306667-184.32 78.506667L409.6 232.106667c-102.4 102.4-102.4 269.653333 0 372.053333l10.24 10.24c13.653333 13.653333 27.306667 23.893333 40.96 34.133333l37.546667-58.026666c-10.24-6.826667-20.48-17.066667-30.72-23.893334l-10.24-10.24c-75.093333-75.093333-75.093333-197.973333 0-273.066666L614.4 126.293333c71.68-75.093333 201.386667-75.093333 273.066667 0l10.24 10.24c75.093333 75.093333 75.093333 197.973333 0 273.066667L750.933333 559.786667l47.786667 47.786666 150.186667-150.186666c98.986667-98.986667 98.986667-266.24 0-368.64z" /></svg>