<?xml version="1.0" standalone="no"?><!DOCTYPE svg PUBLIC "-//W3C//DTD SVG 1.1//EN" "http://www.w3.org/Graphics/SVG/1.1/DTD/svg11.dtd"><svg class="icon" width="32px" height="32.00px" viewBox="0 0 1024 1024" version="1.1" xmlns="http://www.w3.org/2000/svg"><path fill="#d81e06" d="M939.77098 511.235012C935.152941 471.70058 882.42698 403.233129 801.711686 345.085992L758.02102 388.776659C831.10651 439.715639 877.387294 497.501365 879.816784 516.656188 874.937725 553.600502 710.957176 731.595796 503.105255 732.238306 502.784 732.218227 502.442667 732.218227 502.101333 732.218227 474.955294 732.178071 448.592314 728.9856 423.193098 723.60458L373.719843 773.057757C414.619608 785.144973 457.808314 792.413365 502.302118 792.4736L502.563137 792.4736 502.603294 792.453522C733.364706 792.152345 930.534902 600.523796 939.77098 522.258071 940.052078 520.551404 940.212706 518.80458 940.212706 517.0176L940.212706 516.696345 940.212706 516.395169C940.212706 514.628267 940.052078 512.901522 939.77098 511.235012ZM764.54651 254.470024C758.663529 248.587043 750.953412 245.655592 743.243294 245.655592 735.553255 245.655592 727.843137 248.587043 721.960157 254.470024L240.077804 736.352376C228.311843 748.118337 228.311843 767.172769 240.077804 778.938729 245.960784 784.82171 253.670902 787.773239 261.360941 787.773239 269.071059 787.773239 276.781176 784.82171 282.664157 778.938729L764.54651 297.056376C776.312471 285.290416 776.312471 266.235984 764.54651 254.470024ZM124.801506 516.764612C129.680565 479.820298 293.480408 302.045867 501.091388 301.182494 501.573271 301.202573 502.055153 301.222651 502.516957 301.222651 529.683075 301.242729 556.025976 304.4352 581.425192 309.81622L630.918525 260.322886C590.099075 248.255749 546.990682 241.007435 502.557114 240.9472 502.075231 240.9472 501.533114 240.967278 501.011075 240.987357 270.510682 241.850729 73.782212 433.298573 64.84731 511.323357 64.566212 512.989867 64.425663 514.676455 64.425663 516.383122L64.425663 516.704376 64.425663 517.025631C64.425663 518.732298 64.566212 520.398808 64.827231 522.025161 69.304722 561.519435 122.070839 630.087278 202.926682 688.314729L246.597271 644.644141C173.51178 593.685082 127.230996 535.899357 124.801506 516.764612ZM502.310149 665.626102C584.410855 665.626102 651.231875 598.825161 651.231875 516.704376 651.231875 510.018259 650.629522 503.47269 649.766149 497.027514L482.613208 664.160376C489.078463 665.023749 495.624031 665.626102 502.310149 665.626102ZM353.398463 516.704376C353.398463 523.390494 354.000816 529.936063 354.864188 536.381239L521.976973 369.248376C515.531796 368.405082 508.986227 367.802729 502.320188 367.802729 420.199404 367.802729 353.398463 434.603671 353.398463 516.704376Z" /></svg>