<?xml version="1.0" standalone="no"?><!DOCTYPE svg PUBLIC "-//W3C//DTD SVG 1.1//EN" "http://www.w3.org/Graphics/SVG/1.1/DTD/svg11.dtd"><svg class="icon" width="32px" height="32.00px" viewBox="0 0 1024 1024" version="1.1" xmlns="http://www.w3.org/2000/svg"><path fill="#d81e06" d="M512 522.24a20.48 20.48 0 0 1-20.48-20.48V20.48a20.48 20.48 0 0 1 40.96 0v481.28a20.48 20.48 0 0 1-20.48 20.48z"  /><path fill="#d81e06" d="M512 552.96a20.48 20.48 0 0 1-14.4384-6.0416l-184.32-184.32a20.48 20.48 0 0 1 28.9792-28.9792L512 503.5008l169.8816-169.7792a20.48 20.48 0 0 1 28.9792 28.9792l-184.32 184.32A20.48 20.48 0 0 1 512 552.96zM880.64 706.56H133.12a20.48 20.48 0 0 1 0-40.96h747.52a20.48 20.48 0 0 1 0 40.96zM716.8 855.04H307.2a15.36 15.36 0 0 1 0-30.72h409.6a15.36 15.36 0 0 1 0 30.72z"  /><path fill="#d81e06" d="M788.48 102.4H634.88a20.48 20.48 0 0 0-20.48 20.48 20.48 20.48 0 0 0 20.48 20.48h153.6a81.92 81.92 0 0 1 81.92 81.92v675.84a81.92 81.92 0 0 1-81.92 81.92H235.52a81.92 81.92 0 0 1-81.92-81.92V225.28a81.92 81.92 0 0 1 81.92-81.92h153.6a20.48 20.48 0 0 0 20.48-20.48 20.48 20.48 0 0 0-20.48-20.48H235.52a122.88 122.88 0 0 0-122.88 122.88v675.84a122.88 122.88 0 0 0 122.88 122.88h552.96a122.88 122.88 0 0 0 122.88-122.88V225.28a122.88 122.88 0 0 0-122.88-122.88z"  /></svg>