<?xml version="1.0" standalone="no"?><!DOCTYPE svg PUBLIC "-//W3C//DTD SVG 1.1//EN" "http://www.w3.org/Graphics/SVG/1.1/DTD/svg11.dtd"><svg t="1513842926223" class="icon" style="" viewBox="0 0 1024 1024" version="1.1" xmlns="http://www.w3.org/2000/svg" p-id="9185" xmlns:xlink="http://www.w3.org/1999/xlink" width="32" height="32"><defs><style type="text/css"></style></defs><path d="M1022.600629 821.798788 1022.600629 458.414571l-0.021489 0c0.021489-0.459464 0.034792-0.921999 0.034792-1.387603 0-15.679098-12.712533-28.418236-28.390607-28.418236-15.706727 0-28.418236 12.739139-28.418236 28.418236 0 0.465604 0.013303 0.928139 0.034792 1.387603l-0.017396 0 0 370.334513 0.056282 0c-0.029676 1.166569-0.046049 2.342348-0.046049 3.53143 0 73.402777-59.499116 132.900869-132.900869 132.900869-2.52552 0-4.995781 0.074701-7.417947 0.206708L197.984678 965.388091c-2.1295-0.102331-4.296863-0.156566-6.504134-0.156566-68.347644 0-124.607996-51.819203-131.640156-118.283963L59.840388 196.333574 59.587632 196.333574c0.016373-0.873903 0.031722-1.747807 0.031722-2.632967 0-74.126254 60.068074-134.198421 134.195352-134.198421 2.055822 0 4.073782-0.052189 6.063089-0.13917l370.049011 0 0-0.038886c15.82543-0.292666 28.566616-13.179161 28.566616-29.100782 0-15.868409-12.741185-28.780487-28.566616-29.074176L569.926806 1.13587l-0.529049 0c-0.007163 0-0.013303 0-0.020466 0s-0.013303 0-0.020466 0l-370.95873 0 0 0.024559c-1.517563-0.025583-3.060709-0.040932-4.638647-0.040932C87.897398 1.12052 2.066567 86.922698 2.066567 192.814424c0 4.498454 0.11154 8.730848 0.311085 12.743232l0 623.644753c-0.024559 1.485841-0.038886 2.997264-0.038886 4.541433 0 1.029446 0.022513 2.053776 0.038886 3.079128l0 3.604084 0.092098 0.023536C5.97662 940.980191 87.953679 1021.548158 189.042006 1022.799662l0.00921 0.037862 635.269511 0.047072c2.775206 0.092098 5.644557 0.145309 8.637728 0.145309 104.872512 0 189.891861-84.99479 189.891861-189.867302C1022.851339 829.17171 1022.759241 825.40185 1022.600629 821.798788zM344.080058 668.316162l0.00921 0 0 11.979846 144.710846 0L802.530444 366.538047l187.586352-187.586352-0.070608-0.201591c20.076244-18.308995 32.664957-44.677549 32.664957-73.976852 0-55.32198-44.852534-100.146884-100.145861-100.146884-27.491121 0-52.394301 11.088546-70.487378 29.025057l-0.115634-0.048095L617.192296 268.353864 344.080058 541.358655 344.080058 668.316162zM906.953725 62.700017c4.932336-1.827625 10.263761-2.833535 15.829524-2.833535 25.176402 0 45.567825 20.392446 45.567825 45.565778 0 4.574179-0.677429 8.991792-1.934049 13.158694l-53.003168 52.999075-57.677631-57.676607L906.953725 62.700017zM733.067396 236.58737l-0.00921-0.004093 80.647785-80.641645 57.676607 57.676607L622.553397 462.425931l0.01535 0.013303L501.62828 583.380724l-57.682747-57.69605L733.067396 236.58737zM401.987932 567.806004l56.864102 56.863079-56.864102 0L401.987932 567.806004z" p-id="9186" fill="#d81e06"></path></svg>